<?xml version="1.0" encoding="UTF-8"?>
<svg id="katman_1" xmlns="http://www.w3.org/2000/svg" width="170" height="105.04" version="1.1" xmlns:v="https://vecta.io/nano" viewBox="0 0 170 105.04">
  <!-- Generator: Adobe Illustrator 29.6.1, SVG Export Plug-In . SVG Version: 2.1.1 Build 9)  -->
  <defs>
    <style>
      .st0 {
        fill: #636569;
      }

      .st1 {
        fill: #747172;
      }

      .st2 {
        fill: #b12009;
      }

      .st3 {
        fill: #9e3223;
      }

      .st4 {
        fill: #9e3223;
      }

      .st5 {
        fill: #636569;
      }
    </style>
  </defs>
  <path class="st3" d="M87.05,69.49l-5.57-1.35-1.02,3.46-1.25,4.21,8.98,2.17,1.66-7.82-2.79-.67h-.01ZM102.31,6.79c-.32-1.04-.74-1.97-1.19-2.82-.25-.05-.5-.13-.75-.2.18.77.29,1.6.35,2.58l1.6.45h0ZM100.76,7.84l-.1,3.45,2.79.77c-.15-1.3-.39-2.51-.64-3.66-.66-.14-1.36-.33-2.04-.55h-.01ZM108.2,6.56c-1.39-1.01-2.86-1.91-4.4-2.68.02.05-.01.12-.06.19,1.51.85,2.94,1.82,4.29,2.9.12-.11.15-.25.17-.41M107.78,7.16c-1.3-1.12-2.69-2.13-4.15-3.02-.08.05-.17.07-.31.12,1.34.91,2.62,1.97,3.79,3.11.3-.04.51-.14.67-.21M105.46,7.37c.42.04.8.03,1.15.03-1.08-1.14-2.25-2.19-3.51-3.12-.17,0-.34,0-.55-.04,1.06.96,2.03,2,2.91,3.13M104.72,7.27c-.77-1.11-1.6-2.16-2.51-3.06l-.67-.13c.67.92,1.26,1.91,1.75,2.94l1.43.25M99.77,6l.17-2.38c-.26-.08-.53-.2-.8-.31l-1.08,2.08,1.71.61M97.16,5.04c.55-.74,1.07-1.36,1.57-1.86l-.73-.36c-.81.38-1.63.87-2.47,1.48l1.64.75h-.01ZM94.63,3.85c1-.55,1.97-.94,2.91-1.23l-.63-.39c-1.2.15-2.45.44-3.67.82.4.26.88.52,1.4.79h-.01ZM91.58,1.86l.94.73c1.38-.32,2.72-.49,4.06-.55-.17-.11-.3-.21-.43-.32-1.53-.08-3.04-.02-4.57.14M91.18,1.53c1.59-.13,3.2-.13,4.79.02-.1-.12-.19-.21-.24-.31-1.68-.23-3.36-.35-5.04-.33.1.2.29.4.49.62M95.68,1.11c-.04-.07-.01-.15,0-.22-1.71-.39-3.42-.64-5.14-.77-.05.13-.05.29.01.47,1.71.05,3.42.21,5.11.51h.02,0ZM113.63,11.68c-1.07-1.28-2.24-2.47-3.5-3.56,0,.17-.06.37-.19.53,1.23,1.16,2.37,2.41,3.4,3.74.18-.22.28-.46.29-.71M112.92,12.67c-1-1.33-2.08-2.6-3.28-3.82-.22.14-.49.22-.83.26l2.95,3.92c.48-.07.87-.19,1.15-.37h.01ZM106.72,9.14c.81,1.23,1.54,2.54,2.16,3.93.72.06,1.39.08,1.99.02-.82-1.37-1.72-2.68-2.72-3.9-.48,0-.95-.02-1.43-.05M105.79,9.03l-1.8-.33c.45,1.18.81,2.44,1.1,3.75l2.48.47c-.52-1.37-1.11-2.68-1.79-3.89h.01ZM99.57,7.46l-2.13-.78-1.41,2.99,2.95,1.08.58-3.29s.01,0,.01,0ZM96.31,6.21l-2.06-.93-2.6,2.46,2.83,1.28,1.84-2.82h-.01ZM93.15,4.71c-.65-.32-1.25-.64-1.74-.97-1.23.5-2.5,1.12-3.72,1.86l2.42,1.37c1.01-.87,2.03-1.61,3.05-2.26,0,0-.01,0-.01,0ZM86.44,4.79c1.34-.64,2.69-1.21,4.06-1.63l-1.18-.89c-1.52.3-3.04.74-4.52,1.25.45.43,1.02.82,1.65,1.27h-.01ZM84.12,2.91c1.55-.47,3.12-.87,4.71-1.08-.27-.3-.48-.56-.62-.81-1.67.18-3.31.44-4.93.85.23.39.52.74.85,1.05h0ZM88.03.63c-.07-.2-.07-.39.01-.58-1.7.02-3.38.2-5,.46-.11.23-.12.51-.03.81,1.65-.36,3.33-.59,5.02-.69M103.65,14.3l-3.19-.92-.58,4.14,3.86,1.09-.09-4.32h0ZM98.56,12.78l-3.36-1.23-1.64,3.76,4.03,1.49.98-4.02h-.01ZM93.41,10.83l-3.23-1.46-2.66,3.31,3.88,1.74,2.02-3.6h0ZM88.38,8.45l-2.76-1.57c-1.2.85-2.41,1.81-3.58,2.82l3.31,1.89,3.03-3.13h0ZM80.34,8.62c1.28-.96,2.58-1.87,3.89-2.63l-1.88-1.42c-1.46.66-2.89,1.44-4.27,2.33l2.27,1.72h-.01ZM77.18,6.03c1.43-.81,2.9-1.54,4.41-2.19-.44-.41-.76-.82-1-1.2-1.58.55-3.11,1.18-4.6,1.94.28.45.67.94,1.18,1.45,0,0,.01,0,0,0ZM80.3,2.02c-.08-.34-.09-.66.02-.94-1.6.44-3.16.96-4.66,1.65-.15.32-.15.69,0,1.09,1.49-.7,3.07-1.31,4.64-1.8M64.63,11.03c-1.08,1.29-2.05,2.67-2.9,4.12-.15.45-.1.96.1,1.55.86-1.47,1.83-2.87,2.91-4.18-.2-.53-.23-1.06-.11-1.49M65.89,15.3c.62.68,1.39,1.37,2.34,2.12.96-1.38,2.01-2.7,3.15-3.94-.85-.71-1.56-1.38-2.15-2.01-1.2,1.2-2.32,2.48-3.34,3.83M90.36,16.39l-4.17-1.89-2.59,3.97,4.71,2.11,2.04-4.19h0ZM83.86,13.33l-3.57-2.02c-1.13,1.1-2.23,2.29-3.29,3.57l4.01,2.25,2.85-3.8M72.27,11.47c.76.67,1.68,1.38,2.73,2.1l3.49-3.44-2.4-1.85c-1.35.98-2.61,2.05-3.82,3.19M71.15,10.46c1.26-1.13,2.55-2.15,3.94-3.1-.57-.55-.98-1.09-1.24-1.57-1.47.86-2.83,1.83-4.11,2.9.33.54.8,1.13,1.41,1.76h0ZM73.46,4.99c-.15-.43-.15-.84.02-1.19-1.46.78-2.85,1.69-4.15,2.68-.16.39-.15.84,0,1.32,1.3-1.05,2.69-1.98,4.14-2.81h0ZM118.64,20.3c.01.4-.11.75-.38,1.04.53,1.56.99,3.17,1.31,4.79.28-.33.43-.74.43-1.17-.33-1.6-.76-3.16-1.36-4.66M117.7,18.05c-.72-1.45-1.51-2.84-2.45-4.19.02.29-.09.57-.32.79.91,1.43,1.72,2.88,2.38,4.39.26-.26.4-.62.38-.99h.01ZM115.14,19.95c.67-.11,1.2-.26,1.64-.48-.68-1.55-1.43-3.04-2.3-4.45-.34.18-.78.3-1.35.39.78,1.46,1.43,2.97,2.01,4.54M113.92,20.07c-.49-1.58-1.11-3.09-1.8-4.56-.58.01-1.16,0-1.74-.05-.18-.01-.32,0-.51-.01l.08.27c.5,1.38.92,2.8,1.26,4.28.99.08,1.9.11,2.71.08h0ZM109.42,19.76l-.74-3.26-.29-1.24-2.86-.51c.16,1.01.24,2.11.33,3.2l.13,1.23,3.43.59h0ZM115.89,22.29c.45,1.64.79,3.27,1.03,4.96.82-.13,1.46-.33,1.96-.58-.3-1.67-.7-3.29-1.23-4.87-.43.23-1.01.41-1.75.49h0ZM96.05,36.78l6.68,1.62,1.43-6.49-6.37-1.56-1.74,6.44h0ZM62.86,23.66l-.26.53c.81.75,1.79,1.51,2.92,2.35.31-.78.72-1.51,1.06-2.26l1.16-2.45c-1.1-.79-2.05-1.57-2.84-2.3-.76,1.3-1.42,2.7-2.04,4.14h0ZM86.83,22.15l-.95,2.05-1.16,2.51,5.38,2.15,1.73-4.71-1.67-.67-3.34-1.34h0ZM72,37.73l4.28,2.43,1.28-4.42-4.4-2.51c-.49,1.54-.87,3.04-1.16,4.5M111.67,22.33c.27,1.62.43,3.26.49,4.93,1.2.11,2.32.12,3.29.08-.19-1.65-.48-3.29-.87-4.91-.86.03-1.82-.02-2.9-.11h0ZM106.07,21.45l-.17,4.8,4.12.75-.29-4.87-3.66-.68M103.64,20.88l-2.62-.73-1.53-.43-.23,1.08-.73,3.5,4.62,1.32.5-4.73h0ZM97,18.91l-4.32-1.59-1.79,4.33,2.67.96,2.18.78.41-1.47.84-3h.01ZM78.23,24.17l-.45.98-1.71,3.73,5.4,2.47,1.98-4.78-3.67-1.69-1.54-.71s-.01,0-.01,0Z"/>
  <path class="st2" d="M42.29,52.61v-12.17l-.06.02v12.23s.06-.08.06-.08Z"/>
  <path class="st0" d="M135.62,37.72c-2.81-2.34-6.73-3.5-11.76-3.5h-17.82v35.94l2.75,6.5h-1.48l-17.84-42.44h-9.03l-14.74,34.47,6.51,7.97h-1.79l-17.49-21.24,17.82-21.2h-14.43l-14.02,18.39-.06.08v-18.47h-11.75v44.78h11.75v-19.42l.06.08,14.97,19.35h16.71l10.87-27.2,10.81,27.2h22.04v-14.85h6.59c10.57,0,15.86-5.07,15.86-15.2,0-4.95-1.51-8.69-4.51-11.23h-.02ZM125.4,54.05c-1.03.48-2.95.71-5.76.71h-1.96v-11.17h1.96c2.89,0,4.85.24,5.88.71,1.66.79,2.49,2.46,2.49,4.99s-.87,4-2.62,4.75h.01Z"/>
  <polygon class="st4" points="0 86.07 3.19 86.07 0 87.19 0 86.07"/>
  <g>
    <path class="st4" d="M153.65,89.72c1.94-.44,1.73-3.17-.24-3.41-.82-.24-3.17-.11-4.09-.14v.93h2.65-.03c2.59.31,1.04,2.45-.94,1.95v-1.72l-1.68.48v4.55h1.68v-2.38c.28,0,.71,0,.98,0l1.92,2.39h1.98l-2.23-2.65Z"/>
    <path class="st4" d="M12.15,91.05h-2.4l-.47,1.31h-1.71l2.3-6.19h2.18l2.3,6.19h-1.71l-.48-1.31ZM10.14,89.93h1.63l-.82-2.23-.81,2.23Z"/>
    <polygon class="st4" points="15.12 86.17 16.91 86.17 18.52 88.97 20.11 86.17 21.9 86.17 21.9 92.36 20.22 92.36 20.22 88.43 19.05 90.49 18 90.49 16.8 88.43 16.8 92.36 15.12 92.36 15.12 86.17"/>
    <path class="st4" d="M23.07,86.17h1.68c.27,1.14-.82,5.09,1.13,5.1,1.95,0,.87-3.96,1.14-5.1h1.67c-.05,2.23.71,6.62-2.81,6.3-3.53.33-2.77-4.07-2.82-6.3Z"/>
    <polygon class="st4" points="33.38 89.95 33.38 92.36 31.7 92.36 31.7 89.97 29.32 86.17 31.08 86.17 32.54 88.63 34.01 86.17 35.76 86.17 33.38 89.95"/>
    <path class="st4" d="M36.36,86.17h1.68c.27,1.14-.82,5.09,1.13,5.1,1.95,0,.87-3.96,1.14-5.1h1.67c-.05,2.23.71,6.62-2.81,6.3-3.53.33-2.77-4.07-2.82-6.3Z"/>
    <path class="st4" d="M49.85,91.05h-2.4l-.47,1.31h-1.71l2.3-6.19h2.18l2.3,6.19h-1.71l-.48-1.31ZM47.84,89.93h1.63l-.82-2.23-.81,2.23Z"/>
    <polygon class="st4" points="56.32 89.95 56.32 92.36 54.63 92.36 54.63 89.97 52.25 86.17 54.01 86.17 55.47 88.63 56.94 86.17 58.69 86.17 56.32 89.95"/>
    <rect class="st4" x="66.11" y="86.16" width="1.67" height="6.19"/>
    <polygon class="st4" points="69.19 86.17 70.9 86.17 73.1 89.84 73.1 86.17 74.77 86.17 74.77 92.36 73.07 92.36 70.88 88.69 70.88 92.36 69.19 92.36 69.19 86.17"/>
    <polygon class="st4" points="76.12 86.17 77.79 86.17 77.79 91.15 80.45 91.15 80.45 92.36 76.12 92.36 76.12 86.17"/>
    <path class="st4" d="M85.25,91.05h-2.4l-.47,1.31h-1.71l2.3-6.19h2.18l2.3,6.19h-1.71l-.48-1.31ZM83.24,89.93h1.63l-.82-2.23-.81,2.23Z"/>
    <polygon class="st4" points="87.74 86.17 93 86.17 93 87.38 91.22 87.38 91.22 92.36 89.53 92.36 89.53 87.38 87.74 87.38 87.74 86.17"/>
    <polygon class="st4" points="93.87 86.17 95.66 86.17 97.26 88.97 98.86 86.17 100.65 86.17 100.65 92.36 98.97 92.36 98.97 88.43 97.79 90.49 96.74 90.49 95.55 88.43 95.55 92.36 93.87 92.36 93.87 86.17"/>
    <path class="st4" d="M106.01,91.05h-2.4l-.47,1.31h-1.71l2.3-6.19h2.18l2.3,6.19h-1.71l-.48-1.31ZM104,89.93h1.63l-.82-2.23-.81,2.23Z"/>
    <polygon class="st4" points="118.79 86.17 120.46 86.17 120.46 91.15 123.13 91.15 123.13 92.36 118.79 92.36 118.79 86.17"/>
    <path class="st4" d="M127.93,91.05h-2.4l-.47,1.31h-1.71l2.3-6.19h2.18l2.3,6.19h-1.71l-.48-1.31ZM125.92,89.93h1.63l-.82-2.23-.81,2.23Z"/>
    <polygon class="st4" points="130.42 86.17 135.68 86.17 135.68 87.38 133.89 87.38 133.89 92.36 132.21 92.36 132.21 87.38 130.42 87.38 130.42 86.17"/>
    <polygon class="st4" points="138.23 92.36 136.54 92.36 136.54 86.16 141.11 86.16 141.11 87.38 138.23 87.38 138.23 88.5 140.73 88.5 140.73 89.68 138.23 89.68 138.23 92.36"/>
    <path class="st4" d="M141.68,89.27c-.26-4.31,7.18-4.31,6.92,0,.26,4.31-7.18,4.31-6.92,0M146.81,89.27c.22-2.59-3.57-2.59-3.35,0-.22,2.59,3.57,2.59,3.35,0"/>
    <polygon class="st4" points="156.41 86.17 158.2 86.17 159.81 88.97 161.41 86.17 163.19 86.17 163.19 92.36 161.51 92.36 161.51 88.43 160.34 90.49 159.29 90.49 158.1 88.43 158.1 92.36 156.41 92.36 156.41 86.17"/>
    <path class="st4" d="M164.37,86.17h1.68c.27,1.14-.82,5.09,1.13,5.1,1.95,0,.87-3.96,1.13-5.1h1.67c-.05,2.23.71,6.62-2.81,6.3-3.53.33-2.77-4.07-2.82-6.3Z"/>
    <polygon class="st4" points="0 87.92 1.71 87.37 1.71 89.09 4.63 86.07 6.77 86.07 3.8 88.93 6.78 92.37 4.77 92.37 2.75 89.96 1.71 90.95 1.71 92.37 0 92.37 0 87.92"/>
    <path class="st4" d="M117.85,87.28c-.79-1.94-3.84-1.16-5.48-1.31v1.09c.57.02,2.73-.07,3.24.11,1.73,1.13,0,2.43-1.58,2.08v-1.94l-1.66.56v4.45h1.66v-1.97c.28,0,.69,0,.97,0h0c1.87.26,3.59-1.16,2.85-3.06"/>
    <path class="st4" d="M64.82,87.78c-.82-2.05-3.56-1.62-5.35-1.66v1.23h1.68s0,0,0,0c2.9-.64,2.91,4.35,0,3.75v-2.48h0v-1.07l-1.68.68v4.08c3.11.43,6.78-.69,5.35-4.53"/>
    <path class="st5" d="M33.91,101.03c-.19,2.18,2.41,3.15,4.01,2.06l.24,1.47c-8.41,3.28-8.44-10.36.01-7.09l-.25,1.46c-1.67-1.06-4.17-.1-4.01,2.1Z"/>
    <path class="st5" d="M28.75,97.38h2.06v7.63h-2.06v-7.63Z"/>
    <path class="st5" d="M7.06,97.25h2.07c.33,1.41-1.01,6.28,1.4,6.28,2.4,0,1.07-4.88,1.4-6.28h2.06c-.06,2.74.88,8.15-3.46,7.76-4.35.4-3.42-5.02-3.47-7.76Z"/>
    <path class="st5" d="M21.47,102.29c-.18-.66-.73-1.05-1.4-1.24,1.88-.47,1.48-3.15-.26-3.51-.8-.3-3.83-.12-4.73-.17v1.5h2.07c2.77-.42,2.76,1.95,0,1.54v-1.18l-2.07.84v4.94c2.06-.12,7.16.83,6.39-2.72ZM19.2,103.28c-.3.36-1.57.2-2.05.24v-1.72c1-.14,3.04.07,2.05,1.48Z"/>
    <path class="st5" d="M6.25,98.97c-.66-2.33-4.5-1.36-6.25-1.55v1.49c.72,0,2.43,0,3.13,0,1.18-.14,1.47,1.22.92,1.95-.29.43-1.48.28-1.98.3v-1.89l-2.06.83v4.92h2.06v-2.38c2.46.42,5.18-.8,4.19-3.66"/>
    <polygon class="st5" points="24.36 103.52 24.36 98.53 22.3 99.36 22.3 105.01 27.65 105.01 27.65 103.52 24.36 103.52"/>
    <polygon class="st5" points="22.29 97.38 22.29 98.59 25.29 97.38 22.29 97.38"/>
    <path class="st5" d="M129.39,103.4h-2.96l-.58,1.61h-2.11l2.83-7.63h2.69l2.83,7.63h-2.11l-.59-1.61ZM126.91,102.02h2l-1.01-2.75-1,2.75Z"/>
    <path class="st5" d="M161.65,97.38h2.2l1.98,3.46,1.97-3.46h2.2v7.63h-2.07v-4.83l-1.45,2.54h-1.29l-1.47-2.54v4.83h-2.07v-7.63Z"/>
    <path class="st5" d="M144.74,101.02c-.32-5.31,8.85-5.31,8.53,0,.32,5.31-8.85,5.31-8.53,0ZM151.07,101.02c.27-3.2-4.4-3.2-4.12,0-.27,3.2,4.4,3.2,4.12,0Z"/>
    <path class="st5" d="M131.12,97.38h6.48v1.49h-2.2v6.14h-2.07v-6.14h-2.2v-1.49Z"/>
    <path class="st5" d="M116.9,98.97c-.66-2.33-4.5-1.36-6.25-1.55v1.49c.72,0,2.43,0,3.13,0,1.18-.14,1.47,1.22.92,1.95-.29.43-1.48.28-1.98.3v-1.89l-2.06.83v4.92h2.06v-2.38c2.46.42,5.18-.8,4.19-3.66"/>
    <polygon class="st5" points="119.8 103.52 119.8 98.53 117.74 99.36 117.74 105.01 123.08 105.01 123.08 103.52 119.8 103.52"/>
    <polygon class="st5" points="117.73 97.38 117.73 98.59 120.72 97.38 117.73 97.38"/>
    <path class="st5" d="M158.96,102.08c2.09-.54,2.02-3.93.01-4.51-.8-.34-4.01-.13-4.92-.18v1.5c.92,0,2.22-.01,3.14,0,1.08-.13,1.53,1.01.92,1.72-.31.39-1.48.25-1.98.27v-1.63l-2.07.85v4.93h2.07v-2.76h.9l1.66,2.76h2.18l-1.91-2.94Z"/>
    <polygon class="st5" points="140.61 99.28 138.54 100.15 138.54 105.01 140.61 105.01 140.61 101.72 143.69 101.72 143.69 100.26 140.61 100.26 140.61 99.28"/>
    <path class="st5" d="M138.54,97.38v1.49h5.63v-1.49h-5.63Z"/>
    <path class="st5" d="M60.62,101.21c-.19,2.08,2.3,3.01,3.82,1.97l.23,1.4c-8.03,3.13-8.06-9.9.01-6.77l-.24,1.39c-1.6-1.01-3.98-.1-3.82,2Z"/>
    <path class="st5" d="M49.07,97.4h2.05v7.6h-2.05v-7.6Z"/>
    <path class="st5" d="M71.53,101.2c-.3-5.06,8.44-5.06,8.14,0,.3,5.06-8.44,5.06-8.14,0ZM77.57,101.2c.26-3.05-4.19-3.05-3.93,0-.26,3.05,4.19,3.05,3.93,0Z"/>
    <path class="st5" d="M80.41,103.06c.76.5,4.31.96,3.23-.64-.96-.56-2.42-.62-3.06-1.69-1.46-3.13,3.06-4.08,5.13-2.79l-.24,1.4c-.71-.53-3.93-.9-2.84.62.95.56,2.41.6,3.06,1.66,1.48,3.29-3.4,4.08-5.52,2.84l.24-1.4Z"/>
    <path class="st5" d="M52.34,103.06c.76.5,4.29.96,3.22-.64-.96-.55-2.41-.62-3.05-1.69-1.46-3.12,3.05-4.07,5.12-2.78l-.24,1.39c-.71-.53-3.92-.9-2.83.62.95.56,2.41.6,3.05,1.65,1.48,3.28-3.39,4.07-5.51,2.83l.24-1.39Z"/>
    <path class="st5" d="M86.7,97.39h2.04c.33,1.38-.99,6.16,1.37,6.16,2.36,0,1.05-4.79,1.37-6.16h2.02c-.06,2.69.86,8-3.4,7.62-4.26.4-3.35-4.92-3.41-7.62Z"/>
    <polygon class="st5" points="68.03 103.52 68.03 98.53 65.97 99.36 65.97 105.01 71.31 105.01 71.31 103.52 68.03 103.52"/>
    <polygon class="st5" points="65.96 97.39 65.96 98.59 68.95 97.39 65.96 97.39"/>
    <path class="st5" d="M99.31,102.07c2.09-.54,2.02-3.93.01-4.51-.8-.34-4.01-.13-4.91-.18v1.5c.92,0,2.22-.01,3.14,0,1.08-.13,1.52,1.01.92,1.72-.31.39-1.48.25-1.98.27v-1.62l-2.07.85v4.92h2.07v-2.76h.9l1.66,2.76h2.18l-1.91-2.94Z"/>
    <polygon class="st5" points="104.18 99.28 102.11 100.15 102.11 105.01 104.18 105.01 104.18 101.72 107.26 101.72 107.26 100.26 104.18 100.26 104.18 99.28"/>
    <path class="st5" d="M102.11,97.38v1.49h5.63v-1.49h-5.63Z"/>
    <path class="st5" d="M102.11,103.51v1.49h5.63v-1.49h-5.63Z"/>
    <path class="st5" d="M47.76,99.43c-1.02-2.53-4.38-1.99-6.58-2.04l.03,1.54h.16-.08c.63.03,2.84-.17,3.4.08,2.32.99,1.28,5.22-1.43,4.52v-4.24l-2.07.83v4.9c3.83.53,8.35-.84,6.58-5.58Z"/>
    <rect class="st1" y="94.63" width="170" height=".89"/>
  </g>
  <metadata>
    <sfw xmlns="http://ns.adobe.com/SaveForWeb/1.0/">
      <slices/>
      <sliceSourceBounds x="0" y="-0.08" width="170.03" height="105.07" bottomLeftOrigin="true"/>
    </sfw>
  </metadata>
</svg>